<svg xmlns="http://www.w3.org/2000/svg" fill="none" viewBox="0 0 80 20" width="80" height="20"><path fill="#2C2D30" d="M24.89 4.18c-1.44 0-2.74.57-3.73 1.48l-.1-.05A5.74 5.74 0 0 0 15.35.25a5.74 5.74 0 0 0-5.72 5.36l-.1.05A5.46 5.46 0 0 0 5.8 4.18 5.8 5.8 0 0 0 0 10c0 2.78 2.75 5.16 3.43 5.7a19.1 19.1 0 0 0 11.92 4.06c4.51 0 8.7-1.5 11.9-4.06.7-.54 3.44-2.92 3.44-5.7a5.8 5.8 0 0 0-5.8-5.8ZM74.53 16.91c3.19 0 5.47-1.3 5.47-3.91 0-1.88-1.18-3.2-3.75-4.16l-.66-.25c-1.02-.38-1.63-.73-1.63-1.38 0-1.47 3.27-.9 4.98-.5l.9-2.77c-1.06-.32-2.2-.57-3.84-.57-3.26 0-5.38 1.63-5.38 3.92 0 1.71 1.2 2.8 2.85 3.5l1.15.5c1.47.63 2.2.9 2.2 1.54 0 .58-.82 1.07-2.2 1.07-1.06 0-2.2-.17-3.43-.41l-.4 2.93c.89.25 2.11.5 3.74.5Zm-15.82-.16h3.26V8.92c0-1.71.9-2.7 2.37-2.7 1.47 0 2.28 1.07 2.28 2.78v7.75h3.26v-8c0-3.26-1.79-5.54-5.54-5.54-3.35 0-5.63 2.28-5.63 5.55v8Zm-14.36.16c1.14 0 2.04-.16 2.86-.49l-.33-3.01c-2.29.49-4.98.57-4.98-2.13v-7.5h-3.26v7.83c0 3.5 2.04 5.3 5.71 5.3Zm2.37-6.93c0 5.28 3.74 7 7.1 7 1.33 0 2.7-.27 3.73-.7l-.4-2.88c-1.08.31-2.2.42-3.23.42-2.09 0-4.01-.7-4.01-3.54v-.55c0-2.23 1.1-3.42 2.74-3.42 1.08 0 1.98.62 1.98 1.8 0 1.42-1.9 2.06-5.3 1.95l.16 1.88c4.29 1.22 8.32-.1 8.32-3.92 0-2.7-2.06-4.57-5.03-4.57-3.58 0-6.06 2.55-6.06 6.53Z"></path></svg>