<?xml version="1.0" encoding="utf-8"?>
<!-- Generator: Adobe Illustrator 16.0.0, SVG Export Plug-In . SVG Version: 6.00 Build 0)  -->
<!DOCTYPE svg PUBLIC "-//W3C//DTD SVG 1.1//EN" "http://www.w3.org/Graphics/SVG/1.1/DTD/svg11.dtd">
<svg version="1.1" id="图层_1" xmlns="http://www.w3.org/2000/svg" xmlns:xlink="http://www.w3.org/1999/xlink" x="0px" y="0px"
	 width="457.076px" height="84px" viewBox="0 16.407 457.076 84" enable-background="new 0 16.407 457.076 84" xml:space="preserve"
	>
<g>
	<g>
		<path fill="#FCFAFA" d="M81.968,51.253v46.627H55.883V52.883c0-7.011-5.707-12.719-12.718-12.719
			c-7.009,0-12.717,5.708-12.717,12.719v44.998H4.363V51.253c0-25.599,20.38-30.652,37.171-30.652c0.652,0,2.773,0,3.262,0
			C61.752,20.601,81.968,25.655,81.968,51.253z"/>
		<path fill="#FCFAFA" d="M183.377,59.24c-0.164,22.499-18.098,38.314-44.672,38.314c-26.576,0-44.346-15.815-44.508-38.314
			c0,0,0,0,0-0.163c0.163-22.499,17.932-38.476,44.508-38.476c26.575,0,44.509,15.977,44.672,38.476
			C183.377,59.24,183.377,59.24,183.377,59.24z M157.292,59.077c-0.164-11.25-8.316-18.913-18.587-18.913
			c-10.108,0-18.424,7.664-18.424,18.913c0,11.412,8.315,18.913,18.424,18.913C148.976,77.99,157.128,70.489,157.292,59.077z"/>
		<path fill="#FCFAFA" d="M245.496,20.601h26.086v46.628c0,25.599-20.217,30.651-37.173,30.651c-0.488,0-1.143,0-1.632,0
			s-1.141,0-1.63,0c-16.955,0-37.172-5.053-37.172-30.651V20.601h26.085v44.998c0,7.012,5.708,12.717,12.717,12.717
			c7.012,0,12.719-5.705,12.719-12.717V20.601z"/>
		<path fill="#FCFAFA" d="M351.794,62.012c2.282,3.424,3.587,7.499,3.587,12.065c0,20.379-22.499,23.803-30.323,23.803h-10.924
			c-20.38,0-29.348-10.271-30.162-11.412l13.694-13.205c0.164,0.325,4.728,5.053,16.468,5.053h2.771
			c6.031,0,12.39-0.815,12.39-4.238c0-3.914-10.271-5.545-15.324-6.196c-6.195-0.816-12.556-1.793-18.098-4.401
			c-3.588-1.794-6.521-4.24-8.479-7.174c-2.443-3.26-3.586-7.337-3.586-11.902c0-14.348,14.51-23.803,35.704-23.803h3.587
			c12.393,0,22.664,4.89,30.651,14.347L340.056,47.99c-4.564-5.38-9.945-7.827-16.957-7.827h-0.815
			c-3.75,0-12.391-0.978-12.391,4.24c0,3.586,9.945,5.054,14.838,5.706c6.356,0.98,12.88,1.958,18.422,4.566
			C346.741,56.469,349.676,58.914,351.794,62.012z"/>
		<path fill="#FCFAFA" d="M452.714,59.24c-0.163,22.499-18.099,38.314-44.672,38.314c-26.576,0-44.345-15.815-44.51-38.314
			c0,0,0,0,0-0.163c0.165-22.499,17.934-38.476,44.51-38.476c26.573,0,44.509,15.977,44.672,38.476
			C452.714,59.24,452.714,59.24,452.714,59.24z M426.628,59.077c-0.162-11.25-8.314-18.913-18.586-18.913
			c-10.108,0-18.424,7.664-18.424,18.913c0,11.412,8.315,18.913,18.424,18.913C418.313,77.99,426.466,70.489,426.628,59.077z"/>
	</g>
</g>
</svg>
